<svg width="148" height="45" viewBox="0 0 148 45" fill="none" xmlns="http://www.w3.org/2000/svg">
<path d="M18.6384 1.64969L21.5083 6.94825L6.33396 34.9264L0.104492 34.901L18.6384 1.64969Z" fill="white"/>
<path d="M20.5442 1.64969L17.6743 6.94825L32.8487 34.9264L39.0781 34.901L20.5442 1.64969Z" fill="white"/>
<path d="M19.5908 -6.10352e-05L20.5592 1.6771L18.6225 1.6771L19.5908 -6.10352e-05Z" fill="white"/>
<path d="M18.6334 1.67719H20.5501L20.7099 2.63556H18.4736L18.6334 1.67719Z" fill="white"/>
<path d="M19.592 3.59387L18.9003 2.3959L20.2836 2.3959L19.592 3.59387Z" fill="white"/>
<path d="M21.0294 28.5118L23.2656 23.081L32.2231 23.081L32.2232 28.5118L21.0294 28.5118Z" fill="white"/>
<path d="M30.6179 34.9725L28.2233 30.5L11.4999 30.5L8.8959 34.9724L30.6179 34.9725Z" fill="white"/>
<path d="M9.04987 34.901L14.6404 34.901L22.3075 19.8864L19.4324 15.414L9.04987 34.901Z" fill="white"/>
<path d="M48.368 27.6053L52.464 16.4053H54.768L58.864 27.6053H56.688L55.792 25.0133H51.424L50.512 27.6053H48.368ZM51.984 23.4133H55.232L53.6 18.7573L51.984 23.4133ZM61.8588 27.6053V16.0853H63.9068V27.6053H61.8588ZM71.1354 27.6053C70.3034 27.6053 69.6367 27.4026 69.1354 26.9973C68.634 26.5919 68.3834 25.8719 68.3834 24.8373V21.3813H67.0234V19.6693H68.3834L68.6234 17.5413H70.4314V19.6693H72.5754V21.3813H70.4314V24.8533C70.4314 25.2373 70.5114 25.5039 70.6714 25.6533C70.842 25.7919 71.13 25.8613 71.5354 25.8613H72.5274V27.6053H71.1354ZM75.9337 27.6053V19.6693H77.7577L77.9497 21.1573C78.2377 20.6453 78.6271 20.2399 79.1177 19.9413C79.6191 19.6319 80.2057 19.4773 80.8777 19.4773V21.6373H80.3017C79.8537 21.6373 79.4537 21.7066 79.1017 21.8453C78.7497 21.9839 78.4724 22.2239 78.2697 22.5653C78.0777 22.9066 77.9817 23.3813 77.9817 23.9893V27.6053H75.9337ZM86.8535 27.7973C85.8615 27.7973 85.0935 27.4879 84.5495 26.8693C84.0162 26.2506 83.7495 25.3439 83.7495 24.1493V19.6693H85.7815V23.9573C85.7815 24.6399 85.9202 25.1626 86.1975 25.5253C86.4748 25.8879 86.9122 26.0693 87.5095 26.0693C88.0748 26.0693 88.5388 25.8666 88.9015 25.4613C89.2748 25.0559 89.4615 24.4906 89.4615 23.7653V19.6693H91.5095V27.6053H89.7015L89.5415 26.2613C89.2962 26.7306 88.9388 27.1039 88.4695 27.3813C88.0108 27.6586 87.4722 27.7973 86.8535 27.7973ZM95.2599 27.6053V16.4053H102.492V18.0533H97.3079V21.1893H101.5V22.8053H97.3079V27.6053H95.2599ZM108.6 27.7973C107.608 27.7973 106.84 27.4879 106.296 26.8693C105.763 26.2506 105.496 25.3439 105.496 24.1493V19.6693H107.528V23.9573C107.528 24.6399 107.667 25.1626 107.944 25.5253C108.222 25.8879 108.659 26.0693 109.256 26.0693C109.822 26.0693 110.286 25.8666 110.648 25.4613C111.022 25.0559 111.208 24.4906 111.208 23.7653V19.6693H113.256V27.6053H111.448L111.288 26.2613C111.043 26.7306 110.686 27.1039 110.216 27.3813C109.758 27.6586 109.219 27.7973 108.6 27.7973ZM116.959 27.6053V19.6693H118.767L118.927 21.0133C119.172 20.5439 119.524 20.1706 119.983 19.8933C120.452 19.6159 121.001 19.4773 121.631 19.4773C122.612 19.4773 123.375 19.7866 123.919 20.4053C124.463 21.0239 124.735 21.9306 124.735 23.1253V27.6053H122.687V23.3173C122.687 22.6346 122.548 22.1119 122.271 21.7493C121.993 21.3866 121.561 21.2053 120.975 21.2053C120.399 21.2053 119.924 21.4079 119.551 21.8133C119.188 22.2186 119.007 22.7839 119.007 23.5093V27.6053H116.959ZM131.941 27.7973C131.194 27.7973 130.528 27.6159 129.941 27.2533C129.354 26.8906 128.89 26.3946 128.549 25.7653C128.208 25.1359 128.037 24.4213 128.037 23.6213C128.037 22.8213 128.208 22.1119 128.549 21.4933C128.89 20.8639 129.354 20.3733 129.941 20.0213C130.528 19.6586 131.194 19.4773 131.941 19.4773C132.538 19.4773 133.061 19.5893 133.509 19.8133C133.957 20.0373 134.32 20.3519 134.597 20.7573V16.0853H136.645V27.6053H134.821L134.597 26.4693C134.341 26.8213 134 27.1306 133.573 27.3973C133.157 27.6639 132.613 27.7973 131.941 27.7973ZM132.373 26.0053C133.034 26.0053 133.573 25.7866 133.989 25.3493C134.416 24.9013 134.629 24.3306 134.629 23.6373C134.629 22.9439 134.416 22.3786 133.989 21.9413C133.573 21.4933 133.034 21.2693 132.373 21.2693C131.722 21.2693 131.184 21.4879 130.757 21.9253C130.33 22.3626 130.117 22.9279 130.117 23.6213C130.117 24.3146 130.33 24.8853 130.757 25.3333C131.184 25.7813 131.722 26.0053 132.373 26.0053ZM143.611 27.7973C142.907 27.7973 142.288 27.6853 141.755 27.4613C141.221 27.2266 140.795 26.9066 140.475 26.5013C140.155 26.0959 139.963 25.6266 139.899 25.0933H141.963C142.027 25.4026 142.197 25.6693 142.475 25.8933C142.763 26.1066 143.131 26.2133 143.579 26.2133C144.027 26.2133 144.352 26.1226 144.555 25.9413C144.768 25.7599 144.875 25.5519 144.875 25.3173C144.875 24.9759 144.725 24.7466 144.427 24.6293C144.128 24.5013 143.712 24.3786 143.179 24.2613C142.837 24.1866 142.491 24.0959 142.139 23.9893C141.787 23.8826 141.461 23.7493 141.163 23.5893C140.875 23.4186 140.64 23.2053 140.459 22.9493C140.277 22.6826 140.187 22.3573 140.187 21.9733C140.187 21.2693 140.464 20.6773 141.019 20.1973C141.584 19.7173 142.373 19.4773 143.387 19.4773C144.325 19.4773 145.072 19.6959 145.627 20.1333C146.192 20.5706 146.528 21.1733 146.635 21.9413H144.699C144.581 21.3546 144.139 21.0613 143.371 21.0613C142.987 21.0613 142.688 21.1359 142.475 21.2853C142.272 21.4346 142.171 21.6213 142.171 21.8453C142.171 22.0799 142.325 22.2666 142.635 22.4053C142.944 22.5439 143.355 22.6719 143.867 22.7893C144.421 22.9173 144.928 23.0613 145.387 23.2213C145.856 23.3706 146.229 23.5999 146.507 23.9093C146.784 24.2079 146.923 24.6399 146.923 25.2053C146.933 25.6959 146.805 26.1386 146.539 26.5333C146.272 26.9279 145.888 27.2373 145.387 27.4613C144.885 27.6853 144.293 27.7973 143.611 27.7973Z" fill="white"/>
</svg>
